<svg xmlns="http://www.w3.org/2000/svg" viewBox="0 0 512 512" width="512" height="512">
  <defs>
    <linearGradient id="bgGradient" x1="0%" y1="0%" x2="100%" y2="100%">
      <stop offset="0%" style="stop-color:#1B4332"/>
      <stop offset="100%" style="stop-color:#2D6A4F"/>
    </linearGradient>
  </defs>
  
  <!-- Background circle -->
  <circle cx="256" cy="256" r="256" fill="url(#bgGradient)"/>
  
  <!-- Compass outer ring -->
  <circle cx="256" cy="256" r="160" fill="none" stroke="rgba(255,255,255,0.9)" stroke-width="12"/>
  
  <!-- Compass cardinal points -->
  <path d="M256 60 L272 120 L256 100 L240 120 Z" fill="#D4A574"/>
  <path d="M452 256 L392 272 L412 256 L392 240 Z" fill="rgba(255,255,255,0.85)"/>
  <path d="M256 452 L240 392 L256 412 L272 392 Z" fill="rgba(255,255,255,0.7)"/>
  <path d="M60 256 L120 240 L100 256 L120 272 Z" fill="rgba(255,255,255,0.7)"/>
  
  <!-- Center operational crosshair -->
  <circle cx="256" cy="256" r="40" fill="rgba(255,255,255,0.95)"/>
  <circle cx="256" cy="256" r="20" fill="#D4A574"/>
  
  <!-- Grid lines -->
  <line x1="160" y1="256" x2="200" y2="256" stroke="rgba(255,255,255,0.5)" stroke-width="8" stroke-linecap="round"/>
  <line x1="312" y1="256" x2="352" y2="256" stroke="rgba(255,255,255,0.5)" stroke-width="8" stroke-linecap="round"/>
  <line x1="256" y1="160" x2="256" y2="200" stroke="rgba(255,255,255,0.5)" stroke-width="8" stroke-linecap="round"/>
  <line x1="256" y1="312" x2="256" y2="352" stroke="rgba(255,255,255,0.5)" stroke-width="8" stroke-linecap="round"/>
</svg>
