<svg xmlns="http://www.w3.org/2000/svg" viewBox="0 0 180 180" width="180" height="180">
  <defs>
    <linearGradient id="bgGradient" x1="0%" y1="0%" x2="100%" y2="100%">
      <stop offset="0%" style="stop-color:#1B4332"/>
      <stop offset="100%" style="stop-color:#2D6A4F"/>
    </linearGradient>
  </defs>

  <!-- Background -->
  <rect width="180" height="180" rx="40" fill="url(#bgGradient)"/>

  <!-- Compass outer ring -->
  <circle cx="90" cy="90" r="56" fill="none" stroke="rgba(255,255,255,0.9)" stroke-width="4"/>

  <!-- Compass cardinal points -->
  <path d="M90 22 L96 44 L90 36 L84 44 Z" fill="#D4A574"/>
  <path d="M158 90 L136 96 L144 90 L136 84 Z" fill="rgba(255,255,255,0.85)"/>
  <path d="M90 158 L84 136 L90 144 L96 136 Z" fill="rgba(255,255,255,0.7)"/>
  <path d="M22 90 L44 84 L36 90 L44 96 Z" fill="rgba(255,255,255,0.7)"/>

  <!-- Center operational crosshair -->
  <circle cx="90" cy="90" r="14" fill="rgba(255,255,255,0.95)"/>
  <circle cx="90" cy="90" r="7" fill="#D4A574"/>

  <!-- Grid lines -->
  <line x1="56" y1="90" x2="70" y2="90" stroke="rgba(255,255,255,0.5)" stroke-width="3" stroke-linecap="round"/>
  <line x1="110" y1="90" x2="124" y2="90" stroke="rgba(255,255,255,0.5)" stroke-width="3" stroke-linecap="round"/>
  <line x1="90" y1="56" x2="90" y2="70" stroke="rgba(255,255,255,0.5)" stroke-width="3" stroke-linecap="round"/>
  <line x1="90" y1="110" x2="90" y2="124" stroke="rgba(255,255,255,0.5)" stroke-width="3" stroke-linecap="round"/>
</svg>
