<svg width="180" height="180" viewBox="0 0 180 180" fill="none" xmlns="http://www.w3.org/2000/svg">
  <!-- Background -->
  <rect width="180" height="180" rx="40" fill="#234D3E"/>
  <!-- Box body -->
  <path d="M146.25 33.75H33.75C29.25 33.75 25.3125 37.6875 25.3125 42.1875V98.4375C25.3125 102.9375 29.25 106.875 33.75 106.875H146.25C150.75 106.875 154.6875 102.9375 154.6875 98.4375V42.1875C154.6875 37.6875 150.75 33.75 146.25 33.75Z" fill="#3D8B6A"/>
  <!-- Left leg -->
  <path d="M45 104.0625L22.5 146.25" stroke="#3D8B6A" stroke-width="11.25" stroke-linecap="round"/>
  <!-- Right leg -->
  <path d="M135 104.0625L157.5 146.25" stroke="#3D8B6A" stroke-width="11.25" stroke-linecap="round"/>
  <!-- Work surface -->
  <path d="M149.0625 112.5H30.9375C28.125 112.5 25.3125 114.75 25.3125 118.125V126.5625C25.3125 129.375 28.125 132.1875 30.9375 132.1875H149.0625C151.875 132.1875 154.6875 129.375 154.6875 126.5625V118.125C154.6875 114.75 151.875 112.5 149.0625 112.5Z" fill="#E85D04"/>
  <!-- Top right compartment -->
  <rect x="101.25" y="45" width="45" height="22.5" rx="5.625" fill="#52a07e"/>
  <!-- Bottom right compartment -->
  <rect x="101.25" y="73.125" width="45" height="22.5" rx="5.625" fill="#52a07e"/>
  <!-- Left compartment -->
  <rect x="33.75" y="45" width="56.25" height="50.625" rx="8.4375" fill="#52a07e"/>
</svg>
