<svg width="32" height="32" viewBox="0 0 32 32" fill="none" xmlns="http://www.w3.org/2000/svg">
  <!-- Background -->
  <rect width="32" height="32" rx="6" fill="#234D3E"/>
  <!-- Box body -->
  <path d="M26 6H6C5.2 6 4.5 6.7 4.5 7.5V17.5C4.5 18.3 5.2 19 6 19H26C26.8 19 27.5 18.3 27.5 17.5V7.5C27.5 6.7 26.8 6 26 6Z" fill="#3D8B6A"/>
  <!-- Left leg -->
  <path d="M8 18.5L4 26" stroke="#3D8B6A" stroke-width="2" stroke-linecap="round"/>
  <!-- Right leg -->
  <path d="M24 18.5L28 26" stroke="#3D8B6A" stroke-width="2" stroke-linecap="round"/>
  <!-- Work surface (amber-700) -->
  <path d="M26.5 20H5.5C5 20 4.5 20.4 4.5 21V22.5C4.5 23 5 23.5 5.5 23.5H26.5C27 23.5 27.5 23 27.5 22.5V21C27.5 20.4 27 20 26.5 20Z" fill="#b45309"/>
  <!-- Top right compartment -->
  <rect x="18" y="8" width="8" height="4" rx="1" fill="#52a07e"/>
  <!-- Bottom right compartment -->
  <rect x="18" y="13" width="8" height="4" rx="1" fill="#52a07e"/>
  <!-- Left compartment -->
  <rect x="6" y="8" width="10" height="9" rx="1.5" fill="#52a07e"/>
</svg>
