<svg width="72" height="66" viewBox="0 0 72 66" fill="none" xmlns="http://www.w3.org/2000/svg">
  <!-- Main box body -->
  <path d="M60.1818 10H11.8182C9.70946 10 8 11.7349 8 13.875V37.125C8 39.2651 9.70946 41 11.8182 41H60.1818C62.2905 41 64 39.2651 64 37.125V13.875C64 11.7349 62.2905 10 60.1818 10Z" fill="#234D3E"/>
  <!-- Left leg -->
  <path d="M15.6924 40.6155L5.53857 60.9232" stroke="#234D3E" stroke-width="5.07692" stroke-linecap="round"/>
  <!-- Right leg -->
  <path d="M56.3076 40.6155L66.4615 60.9232" stroke="#234D3E" stroke-width="5.07692" stroke-linecap="round"/>
  <!-- Work surface (orange bar) -->
  <path d="M62.0195 43.1538H9.98099C8.92953 43.1538 8.07715 44.0062 8.07715 45.0577V48.8653C8.07715 49.9168 8.92953 50.7692 9.98099 50.7692H62.0195C63.0709 50.7692 63.9233 49.9168 63.9233 48.8653V45.0577C63.9233 44.0062 63.0709 43.1538 62.0195 43.1538Z" fill="#E85D04"/>
  <!-- Top right compartment -->
  <path d="M57.9643 14H43.0357C41.9114 14 41 14.6716 41 15.5V22.5C41 23.3284 41.9114 24 43.0357 24H57.9643C59.0886 24 60 23.3284 60 22.5V15.5C60 14.6716 59.0886 14 57.9643 14Z" fill="#3D8B6A"/>
  <!-- Bottom right compartment -->
  <path d="M57.9643 28H43.0357C41.9114 28 41 28.6044 41 29.35V35.65C41 36.3956 41.9114 37 43.0357 37H57.9643C59.0886 37 60 36.3956 60 35.65V29.35C60 28.6044 59.0886 28 57.9643 28Z" fill="#3D8B6A"/>
  <!-- Left compartment -->
  <path d="M34.3214 14H14.6786C13.1992 14 12 15.5446 12 17.45V33.55C12 35.4554 13.1992 37 14.6786 37H34.3214C35.8008 37 37 35.4554 37 33.55V17.45C37 15.5446 35.8008 14 34.3214 14Z" fill="#3D8B6A"/>
  <!-- Center divider -->
  <path d="M36 11V40" stroke="#3D8B6A" stroke-width="2.53846"/>
</svg>
